<svg width="24" height="9" viewBox="0 0 24 9" fill="none" xmlns="http://www.w3.org/2000/svg">
<path fill-rule="evenodd" clip-rule="evenodd" d="M15.671 5.756C15.88 5.882 16.015 6.058 16.015 6.378L16.017 6.379C16.017 6.829 15.717 7.054 15.537 7.126L15.517 7.134C15.667 7.188 15.787 7.288 15.847 7.368C15.938 7.508 15.953 7.634 15.955 7.884V8.439H15.295V8.089C15.295 8.07172 15.2952 8.0536 15.2953 8.03488C15.2968 7.8694 15.2988 7.65578 15.191 7.539C15.103 7.438 14.953 7.414 14.713 7.414H13.993V8.441H13.318V5.621H14.861C15.207 5.621 15.461 5.636 15.671 5.756ZM15.117 6.783L15.145 6.785L15.147 6.786C15.236 6.731 15.281 6.636 15.281 6.516C15.287 6.408 15.229 6.309 15.131 6.261C15.041 6.211 14.921 6.211 14.801 6.211H13.977V6.841H14.787C14.922 6.841 15.027 6.836 15.117 6.783ZM19 7.837H20.297C20.424 7.837 20.514 7.82 20.574 7.767C20.619 7.737 20.654 7.664 20.654 7.587C20.654 7.513 20.618 7.437 20.572 7.407C20.527 7.362 20.451 7.347 20.347 7.347C20.3083 7.34608 20.2691 7.34539 20.2296 7.34469C19.6238 7.33397 18.94 7.32186 18.94 6.477C18.94 6.074 19.194 5.637 19.898 5.637H21.248V6.239H20.018C19.923 6.233 19.829 6.253 19.746 6.299C19.673 6.343 19.656 6.419 19.656 6.509C19.656 6.614 19.716 6.689 19.806 6.719C19.881 6.749 19.957 6.749 20.061 6.749L20.437 6.764C20.775 6.778 21.014 6.838 21.167 6.971C21.288 7.105 21.354 7.273 21.354 7.553C21.354 8.159 20.98 8.437 20.304 8.437H19V7.837ZM21.1579 6.95756C21.1589 6.95909 21.1599 6.96072 21.1609 6.96233C21.1628 6.96558 21.1648 6.96876 21.167 6.971C21.1718 6.97581 21.1773 6.9783 21.1826 6.98071C21.1852 6.98187 21.1877 6.98302 21.1901 6.98439L21.198 6.991C21.1957 6.98813 21.193 6.98608 21.1901 6.98439L21.1579 6.95756ZM21.1579 6.95756C21.1573 6.95667 21.1566 6.95581 21.156 6.955V6.956L21.1579 6.95756ZM23.828 5.084H23.832V5.082H23.893V5.637H23.829V5.636H23.828V5.084ZM23.828 5.636H22.546C21.856 5.636 21.586 6.073 21.586 6.476C21.586 7.32079 22.2732 7.33296 22.8786 7.34368C22.9181 7.34439 22.9574 7.34508 22.996 7.346C23.1 7.346 23.176 7.361 23.22 7.406C23.266 7.436 23.296 7.512 23.296 7.586C23.296 7.656 23.262 7.724 23.206 7.766C23.161 7.822 23.07 7.836 22.936 7.836H21.648V8.441H22.935C23.355 8.441 23.669 8.323 23.835 8.081H23.865C23.955 7.947 24 7.781 24 7.558C24 7.318 23.955 7.168 23.865 7.032V7.03V7.025C23.8511 7.01343 23.8402 7.00228 23.8297 6.99147C23.8174 6.97892 23.8056 6.96681 23.79 6.955C23.64 6.802 23.4 6.74 23.026 6.73L22.666 6.718C22.546 6.718 22.472 6.711 22.396 6.688C22.306 6.658 22.246 6.583 22.246 6.478C22.246 6.388 22.276 6.318 22.336 6.274C22.412 6.229 22.486 6.224 22.606 6.224H23.829V5.637H23.828V5.636ZM18.597 5.625V6.208L17.028 6.209V6.719H18.56V7.303H17.027V7.873H18.597V8.458H16.362V5.625H18.597ZM14.195 0.787H13.51L13.511 3.6H14.195V0.787ZM13.119 1.549L13.126 1.543L13.127 1.542C13.127 1.992 12.827 2.222 12.655 2.292C12.783 2.339 12.895 2.422 12.985 2.529C13.079 2.67 13.095 2.795 13.095 3.045V3.598H12.418V3.244C12.418 3.22772 12.4181 3.21079 12.4183 3.19335C12.4196 3.02863 12.4213 2.81898 12.311 2.696C12.214 2.606 12.064 2.576 11.824 2.576H11.104V3.61H10.43V0.79H11.969C12.309 0.79 12.562 0.8 12.779 0.925C12.989 1.049 13.119 1.235 13.119 1.549ZM12.256 1.939H12.271V1.938C12.358 1.892 12.405 1.794 12.405 1.672C12.405 1.55 12.345 1.462 12.255 1.422C12.165 1.376 12.045 1.372 11.925 1.372H11.1V1.995H11.926C12.061 1.995 12.166 1.993 12.256 1.939ZM16.552 1.373H15.92H15.919C15.675 1.373 15.536 1.403 15.403 1.538C15.289 1.658 15.209 1.883 15.209 2.168C15.209 2.47 15.27 2.68 15.395 2.83C15.501 2.934 15.686 2.964 15.863 2.964H16.163L17.106 0.744H18.11L19.243 3.4V0.789H20.263L21.443 2.749V0.786H22.127V3.599L22.125 3.597H21.175L19.903 1.487V3.597H18.543L18.281 2.97H16.891L16.636 3.597H15.856C15.531 3.597 15.118 3.525 14.886 3.287C14.649 3.046 14.526 2.725 14.526 2.213C14.526 1.793 14.602 1.403 14.888 1.103C15.104 0.877999 15.444 0.773 15.908 0.773H16.552V1.373ZM18.052 2.383L17.588 1.265L17.122 2.385H18.052V2.383ZM2.634 3.598L2.38 2.97L0.99 2.971L0.73 3.597H0.01L1.208 0.787H2.205L3.343 3.45V0.787H4.435L5.311 2.692L6.118 0.788H7.234V3.598H6.544L6.529 1.396L5.556 3.598H4.972L4 1.393V3.598H2.634ZM2.152 2.383L1.692 1.265H1.691L1.234 2.385H2.149L2.152 2.383ZM9.714 5.62H11.856L11.855 5.621C12.385 5.621 12.983 5.771 12.983 6.551L12.989 6.554C12.989 7.335 12.419 7.499 11.819 7.499H10.981V8.439H9.679L8.855 7.509L8 8.441H5.346V5.621H8.039L8.864 6.543L9.714 5.62ZM7.67 7.853L7.656 7.851H6.02V7.294H7.49V6.72H6.02V6.21H7.7L8.433 7.03L7.67 7.853ZM9.282 7.036L10.312 8.183V8.181V5.928L9.282 7.036ZM10.98 6.925H11.865V6.924C12.135 6.924 12.285 6.795 12.285 6.552C12.285 6.306 12.105 6.208 11.865 6.208H10.98V6.925ZM9.967 0.787V1.373H8.4V1.88H9.927V2.456H8.4V3.02H9.967V3.6H7.73V0.787H9.967Z" fill="#2E77BC"/>
</svg>
