<svg width="25" height="12" viewBox="0 0 25 12" fill="none" xmlns="http://www.w3.org/2000/svg">
<path d="M1.33815 1.76214C2.98863 0.880553 4.86399 1.34885 6.14636 1.89689L9.96911 3.53057L16.5437 0.5L20.4591 0.654168L15.03 5.69839L18.49 7.2047L22.0898 5.94913L24.5 6.97909L22.3218 9.45796C22.552 9.70956 22.7605 10.0638 22.5712 10.4359C22.3239 10.9218 21.5931 11.1667 20.3943 11.1667C20.1485 11.1667 19.8829 11.1564 19.5979 11.1357C18.282 11.0405 16.8553 10.7326 15.9633 10.3514L2.29841 4.51163C1.11816 4.0072 0.530252 3.47755 0.501104 2.8923C0.485987 2.58876 0.618933 2.14618 1.33815 1.76214Z" fill="#0090BD"/>
</svg>
