<svg width="20" height="20" viewBox="0 0 20 20" fill="none" xmlns="http://www.w3.org/2000/svg">
<path d="M1.5 2C1.5 0.89 2.39 0 3.5 0C4.61 0 5.5 0.89 5.5 2C5.5 3.11 4.61 4 3.5 4C2.39 4 1.5 3.11 1.5 2ZM7 8.95V7C7 5.9 6.1 5 5 5H2C0.9 5 0 5.9 0 7V13H2V20H5.5V19.89C4.26 18.63 3.5 16.9 3.5 15C3.5 12.42 4.91 10.16 7 8.95ZM13.5 15C13.5 16.65 12.15 18 10.5 18C8.85 18 7.5 16.65 7.5 15C7.5 13.89 8.11 12.94 9 12.42V10.26C6.98 10.9 5.5 12.77 5.5 15C5.5 17.76 7.74 20 10.5 20C13.26 20 15.5 17.76 15.5 15H13.5ZM16.54 12H12V6H10V14H15.46L17.93 17.71L19.59 16.6L16.54 12Z" fill="black"/>
</svg>
