<svg width="14" height="16" viewBox="0 0 14 16" fill="none" xmlns="http://www.w3.org/2000/svg">
<path fill-rule="evenodd" clip-rule="evenodd" d="M4 5.00022C4 4.20457 4.31607 3.4415 4.87868 2.8789C5.44129 2.31629 6.20435 2.00022 7 2.00022C7.79565 2.00022 8.55871 2.31629 9.12132 2.8789C9.68393 3.4415 10 4.20457 10 5.00022C10 5.79587 9.68393 6.55893 9.12132 7.12154C8.55871 7.68415 7.79565 8.00022 7 8.00022C6.20435 8.00022 5.44129 7.68415 4.87868 7.12154C4.31607 6.55893 4 5.79587 4 5.00022ZM10.291 8.76422C11.057 8.09453 11.6004 7.20711 11.8488 6.22044C12.0971 5.23377 12.0385 4.19482 11.6809 3.24231C11.3232 2.28981 10.6835 1.46909 9.84707 0.889742C9.01067 0.310396 8.01744 0 7 0C5.98256 0 4.98933 0.310396 4.15293 0.889742C3.31654 1.46909 2.6768 2.28981 2.31913 3.24231C1.96146 4.19482 1.90289 5.23377 2.15123 6.22044C2.39958 7.20711 2.94302 8.09453 3.709 8.76422C1.525 9.84522 0 11.9742 0 14.5002C0 14.7654 0.105357 15.0198 0.292893 15.2073C0.48043 15.3949 0.734784 15.5002 1 15.5002C1.26522 15.5002 1.51957 15.3949 1.70711 15.2073C1.89464 15.0198 2 14.7654 2 14.5002C2 12.0952 4.155 10.0002 7 10.0002C9.845 10.0002 12 12.0952 12 14.5002C12 14.7654 12.1054 15.0198 12.2929 15.2073C12.4804 15.3949 12.7348 15.5002 13 15.5002C13.2652 15.5002 13.5196 15.3949 13.7071 15.2073C13.8946 15.0198 14 14.7654 14 14.5002C14 11.9742 12.475 9.84522 10.291 8.76422Z" fill="black"/>
</svg>
