<svg width="16" height="20" viewBox="0 0 16 20" fill="none" xmlns="http://www.w3.org/2000/svg">
<path d="M6 8.74228e-07L14 1.74846e-07C15.1 7.86805e-08 16 0.9 16 2L16 18C16 19.1 15.1 20 14 20L2 20C0.900001 20 1.66978e-06 19.1 1.57361e-06 18L5.24537e-07 6L6 8.74228e-07ZM8 8C6.9 8 6 8.9 6 10C6 11.1 6.9 12 8 12C9.1 12 10 11.1 10 10C10 8.9 9.1 8 8 8ZM4 16L12 16L12 15.43C12 14.62 11.52 13.9 10.78 13.58C9.93 13.21 8.99 13 8 13C7.01 13 6.07 13.21 5.22 13.58C4.48 13.9 4 14.62 4 15.43L4 16Z" fill="#11397E"/>
</svg>
