<svg width="5" height="8" viewBox="0 0 5 8" fill="none" xmlns="http://www.w3.org/2000/svg">
<path d="M1.30243 4.08826L4.37379 1.01658C4.46335 0.926588 4.51352 0.804721 4.51328 0.677756C4.51304 0.550791 4.46241 0.429115 4.37251 0.339461C4.28288 0.249419 4.16116 0.198666 4.03412 0.198366C3.90707 0.198066 3.78511 0.248243 3.69507 0.337861L0.297947 3.73498C0.208715 3.82464 0.158567 3.94595 0.158447 4.07245C0.158328 4.19894 0.208245 4.32035 0.297306 4.41018L0.297947 4.41082C0.300269 4.41319 0.302616 4.41554 0.304986 4.41786L3.71427 7.78874C3.90083 7.9753 4.19971 7.97882 4.38211 7.79674C4.56419 7.61434 4.56067 7.31578 4.37379 7.1289L1.30243 4.08826Z" fill="#1C1B1F"/>
</svg>
