<svg width="38" height="39" viewBox="0 0 38 39" fill="none" xmlns="http://www.w3.org/2000/svg">
<path d="M34 25.262V22.405L21.25 15.262V7.4049C21.25 6.21921 20.245 3.8335 19 3.8335C17.755 3.8335 16.75 6.21921 16.75 7.4049V15.262L4 22.405V25.262L16.75 21.6907V29.5478L13 31.6907V33.8335L19 32.405L25 33.8335V31.6907L21.25 29.5478V21.6907L34 25.262Z" fill="#11397E"/>
<path d="M1 19.3335C1 9.39705 9.06356 1.3335 19 1.3335C28.9366 1.3335 37 9.39705 37 19.3335C37 29.2701 28.9366 37.3335 19 37.3335C9.06355 37.3335 1 29.2701 1 19.3335Z" stroke="#11397E" stroke-width="2"/>
<path d="M1 19.3335C1 9.39705 9.06356 1.3335 19 1.3335C28.9366 1.3335 37 9.39705 37 19.3335C37 29.2701 28.9366 37.3335 19 37.3335C9.06355 37.3335 1 29.2701 1 19.3335Z" stroke="#11397E" stroke-width="2"/>
</svg>
