<svg width="26" height="16" viewBox="0 0 26 16" fill="none" xmlns="http://www.w3.org/2000/svg">
<path d="M16.2982 2.2345H9.68433V13.7654H16.2982V2.2345Z" fill="#FF5F00"/>
<path d="M10.1043 7.99995C10.1032 6.88944 10.3626 5.79325 10.8628 4.79437C11.363 3.7955 12.0908 2.92011 12.9913 2.23449C11.8762 1.38416 10.537 0.855353 9.12683 0.708509C7.71663 0.561664 6.2923 0.802704 5.01664 1.40409C3.74097 2.00547 2.66544 2.94294 1.91297 4.10932C1.16051 5.2757 0.761475 6.62394 0.761475 7.99995C0.761475 9.37595 1.16051 10.7242 1.91297 11.8906C2.66544 13.057 3.74097 13.9944 5.01664 14.5958C6.2923 15.1972 7.71663 15.4382 9.12683 15.2914C10.537 15.1445 11.8762 14.6157 12.9913 13.7654C12.0908 13.0798 11.363 12.2044 10.8628 11.2055C10.3626 10.2066 10.1032 9.11046 10.1043 7.99995Z" fill="#EB001B"/>
<path d="M25.2207 7.99995C25.2207 9.37593 24.8217 10.7242 24.0693 11.8906C23.3169 13.0569 22.2414 13.9944 20.9657 14.5958C19.6901 15.1972 18.2658 15.4382 16.8556 15.2914C15.4454 15.1445 14.1063 14.6157 12.9913 13.7654C13.8909 13.0791 14.6182 12.2036 15.1183 11.2048C15.6184 10.2061 15.8782 9.11028 15.8782 7.99995C15.8782 6.88961 15.6184 5.79377 15.1183 4.79505C14.6182 3.79633 13.8909 2.92081 12.9913 2.23449C14.1063 1.38416 15.4454 0.855349 16.8556 0.708507C18.2658 0.561664 19.6901 0.802715 20.9657 1.40411C22.2414 2.0055 23.3169 2.94296 24.0693 4.10934C24.8217 5.27572 25.2207 6.62396 25.2207 7.99995Z" fill="#F79E1B"/>
<path d="M24.4995 12.5442V12.3081H24.5976V12.26H24.3477V12.3081H24.4459V12.5442H24.4995ZM24.9846 12.5442V12.2595H24.908L24.8199 12.4553L24.7318 12.2595H24.6551V12.5442H24.7092V12.3295L24.7919 12.5146H24.8479L24.9306 12.329V12.5442H24.9846Z" fill="#F79E1B"/>
</svg>
