<svg width="5" height="8" viewBox="0 0 5 8" fill="none" xmlns="http://www.w3.org/2000/svg">
<path d="M3.69757 4.08826L0.626214 1.01658C0.536652 0.926588 0.486478 0.804721 0.486718 0.677756C0.486958 0.550791 0.537591 0.429115 0.627494 0.339461C0.717118 0.249419 0.838839 0.198666 0.965882 0.198366C1.09293 0.198066 1.21489 0.248243 1.30493 0.337861L4.70205 3.73498C4.79129 3.82464 4.84143 3.94595 4.84155 4.07245C4.84167 4.19894 4.79176 4.32035 4.70269 4.41018L4.70205 4.41082C4.69973 4.41319 4.69738 4.41554 4.69501 4.41786L1.28573 7.78874C1.09917 7.9753 0.800293 7.97882 0.617894 7.79674C0.435813 7.61434 0.439334 7.31578 0.626214 7.1289L3.69757 4.08826Z" fill="#1C1B1F"/>
</svg>
