<svg width="22" height="18" viewBox="0 0 22 18" fill="none" xmlns="http://www.w3.org/2000/svg">
<path d="M7.28745 10.275C8.33745 11.0625 9.61245 11.5125 11 11.5125C12.3875 11.5125 13.6625 11.0625 14.7125 10.275C18.2375 10.5 21.0125 12.9 21.0125 16.5C21.0125 16.5 16.6625 17.7375 11 17.7375C5.33745 17.7375 0.987451 16.5 0.987451 16.5C0.987451 12.9 3.76245 10.5 7.28745 10.275ZM11 10.275C8.22495 10.275 5.97495 8.02498 5.97495 5.24998C5.97495 4.91248 6.01245 4.61248 6.04995 4.27498L6.01245 4.27498C6.49995 1.98748 8.52495 0.224977 10.9625 0.224976C12.8375 0.224976 14.5625 1.23748 15.35 2.81248C15.7625 3.52498 15.9875 4.38748 15.9875 5.24998C16.025 8.02498 13.775 10.275 11 10.275Z" fill="#11397E"/>
</svg>
