<svg width="24" height="24" viewBox="0 0 24 24" fill="none" xmlns="http://www.w3.org/2000/svg">
<mask id="mask0_615_1058" style="mask-type:alpha" maskUnits="userSpaceOnUse" x="0" y="0" width="24" height="24">
<rect width="24" height="24" fill="#000000"/>
</mask>
<g mask="url(#mask0_615_1058)">
<path d="M5.00002 21C4.71669 21 4.45836 20.9125 4.22502 20.7375C3.99169 20.5625 3.83336 20.3333 3.75002 20.05L0.950025 9.95C0.866691 9.71667 0.904191 9.5 1.06252 9.3C1.22086 9.1 1.43336 9 1.70002 9H6.75002L11.15 2.45C11.2334 2.31667 11.35 2.20833 11.5 2.125C11.65 2.04167 11.8084 2 11.975 2C12.1417 2 12.3 2.04167 12.45 2.125C12.6 2.20833 12.7167 2.31667 12.8 2.45L17.2 9H22.3C22.5667 9 22.7792 9.1 22.9375 9.3C23.0959 9.5 23.1334 9.71667 23.05 9.95L20.25 20.05C20.1667 20.3333 20.0084 20.5625 19.775 20.7375C19.5417 20.9125 19.2834 21 19 21H5.00002ZM5.50002 19H18.5L20.7 11H3.30002L5.50002 19ZM9.17502 9H14.8L11.975 4.8L9.17502 9Z" fill="#000000"/>
</g>
</svg>
